<svg aria-hidden="true" focusable="false" role="img" viewBox="-44 0 511 511.984" xmlns="http://www.w3.org/2000/svg"><path fill="currentColor" d="m72.492188 487.984375c-26.472657 0-48-21.527344-48-48s21.527343-48 48-48c26.472656 0 48 21.527344 48 48s-21.527344 48-48 48zm0-80c-17.648438 0-32 14.351563-32 32s14.351562 32 32 32c17.648437 0 32-14.351563 32-32s-14.351563-32-32-32zm0 0"/><path fill="currentColor" d="m72.492188 511.984375c-39.703126 0-72-32.296875-72-72s32.296874-72 72-72c39.703124 0 72 32.296875 72 72s-32.296876 72-72 72zm0-128c-30.871094 0-56 25.128906-56 56s25.128906 56 56 56c30.871093 0 56-25.128906 56-56s-25.128907-56-56-56zm0 0"/><path fill="currentColor" d="m136.492188 80c-4.425782 0-8-3.574219-8-8 0-30.871094-25.128907-56-56-56-30.871094 0-56 25.128906-56 56 0 4.425781-3.578126 8-8 8-4.425782 0-8-3.574219-8-8 0-39.703125 32.296874-72 72-72 39.703124 0 72 32.296875 72 72 0 4.425781-3.578126 8-8 8zm0 0"/><path fill="currentColor" d="m72.492188 463.984375c-13.230469 0-24-10.769531-24-24s10.769531-24 24-24c13.230468 0 24 10.769531 24 24s-10.769532 24-24 24zm0-32c-4.417969 0-8 3.582031-8 8 0 4.414063 3.582031 8 8 8 4.414062 0 8-3.585937 8-8 0-4.417969-3.585938-8-8-8zm0 0"/><path fill="currentColor" d="m136.492188 447.984375c-4.425782 0-8-3.578125-8-8v-367.984375c0-4.425781 3.574218-8 8-8 4.421874 0 8 3.574219 8 8v367.984375c0 4.421875-3.578126 8-8 8zm0 0"/><path fill="currentColor" d="m8.492188 447.984375c-4.425782 0-8-3.578125-8-8v-367.984375c0-4.425781 3.574218-8 8-8 4.421874 0 8 3.574219 8 8v367.984375c0 4.421875-3.578126 8-8 8zm0 0"/><path fill="currentColor" d="m416.429688 511.984375h-343.9375c-4.425782 0-8-3.578125-8-8 0-4.425781 3.574218-8 8-8h343.9375c4.421874 0 8 3.574219 8 8 0 4.421875-3.578126 8-8 8zm0 0"/><path fill="currentColor" d="m320.476562 447.777344h-183.984374c-4.425782 0-8-3.578125-8-8 0-4.425782 3.574218-8 8-8h183.984374c4.421876 0 8 3.574218 8 8 0 4.421875-3.578124 8-8 8zm0 0"/><path fill="currentColor" d="m416.429688 80h-279.9375c-4.425782 0-8-3.574219-8-8s3.574218-8 8-8h279.9375c4.421874 0 8 3.574219 8 8s-3.578126 8-8 8zm0 0"/><path fill="currentColor" d="m320.476562 144.0625h-183.984374c-4.425782 0-8-3.574219-8-8 0-4.421875 3.574218-8 8-8h183.984374c4.421876 0 8 3.578125 8 8 0 4.425781-3.578124 8-8 8zm0 0"/><path fill="currentColor" d="m416.429688 511.984375c-4.425782 0-8-3.578125-8-8v-431.984375c0-4.425781 3.574218-8 8-8 4.421874 0 8 3.574219 8 8v431.984375c0 4.421875-3.578126 8-8 8zm0 0"/><path fill="currentColor" d="m352.363281 415.960938c-4.421875 0-8-3.578126-8-8v-239.96875c0-4.425782 3.578125-8 8-8 4.425781 0 8 3.574218 8 8v239.96875c0 4.421874-3.574219 8-8 8zm0 0"/><path fill="currentColor" d="m136.300781 384.183594c-4.425781 0-8-3.574219-8-8 0-4.421875 3.574219-8 8-8 44.191407 0 80.160157-35.960938 80.160157-80.167969s-35.960938-80.167969-80.160157-80.167969c-4.425781 0-8-3.574218-8-8 0-4.421875 3.574219-8 8-8 53.023438 0 96.160157 43.144532 96.160157 96.167969s-43.136719 96.167969-96.160157 96.167969zm0 0"/><path fill="currentColor" d="m136.300781 416.183594c-4.425781 0-8-3.574219-8-8 0-4.421875 3.574219-8 8-8 61.839844 0 112.160157-50.320313 112.160157-112.167969s-50.3125-112.167969-112.160157-112.167969c-4.425781 0-8-3.574218-8-8 0-4.421875 3.574219-8 8-8 70.664063 0 128.160157 57.496094 128.160157 128.167969s-57.496094 128.167969-128.160157 128.167969zm0 0"/><path fill="currentColor" d="m136.300781 352.183594c-4.425781 0-8-3.574219-8-8 0-4.421875 3.574219-8 8-8 26.550781 0 48.160157-21.609375 48.160157-48.167969s-21.601563-48.167969-48.160157-48.167969c-4.425781 0-8-3.574218-8-8 0-4.421875 3.574219-8 8-8 35.375 0 64.160157 28.785156 64.160157 64.167969s-28.785157 64.167969-64.160157 64.167969zm0 0"/><path fill="currentColor" d="m136.300781 324.113281c-4.425781 0-8-3.578125-8-8 0-4.425781 3.574219-8 8-8 11.070313 0 20.078125-9.007812 20.078125-20.089843 0-11.078126-9.007812-20.085938-20.078125-20.085938-4.425781 0-8-3.578125-8-8 0-4.425781 3.574219-8 8-8 19.886719 0 36.078125 16.183594 36.078125 36.085938 0 19.90625-16.183594 36.089843-36.078125 36.089843zm0 0"/><path fill="currentColor" d="m352.476562 175.984375c-22.054687 0-40-17.945313-40-40.007813 0-4.425781 3.574219-8 8-8 4.421876 0 8 3.574219 8 8 0 13.230469 10.765626 24.007813 24 24.007813 4.421876 0 8 3.574219 8 8 0 4.421875-3.578124 8-8 8zm0 0"/><path fill="currentColor" d="m352.476562 207.863281c-39.632812 0-71.871093-32.246093-71.871093-71.886719 0-4.425781 3.574219-8 8-8 4.421875 0 8 3.574219 8 8 0 30.824219 25.0625 55.886719 55.871093 55.886719 4.421876 0 8 3.578125 8 8 0 4.425781-3.578124 8-8 8zm0 0"/><path fill="currentColor" d="m352.476562 239.863281c-57.265624 0-103.855468-46.597656-103.855468-103.886719 0-4.425781 3.574218-8 8-8 4.421875 0 8 3.574219 8 8 0 48.464844 39.414062 87.886719 87.855468 87.886719 4.421876 0 8 3.578125 8 8 0 4.425781-3.578124 8-8 8zm0 0"/><path fill="currentColor" d="m320.476562 447.96875c-4.425781 0-8-3.578125-8-8 0-22.058594 17.945313-40 40-40 4.421876 0 8 3.574219 8 8 0 4.421875-3.578124 8-8 8-13.234374 0-24 10.765625-24 24 0 4.421875-3.578124 8-8 8zm0 0"/><path fill="currentColor" d="m288.492188 447.96875c-4.425782 0-8-3.578125-8-8 0-39.703125 32.296874-72 72-72 4.421874 0 8 3.574219 8 8 0 4.421875-3.578126 8-8 8-30.871094 0-56 25.128906-56 56 0 4.421875-3.578126 8-8 8zm0 0"/><path fill="currentColor" d="m256.492188 447.96875c-4.425782 0-8-3.578125-8-8 0-57.34375 46.65625-104 104-104 4.421874 0 8 3.574219 8 8 0 4.421875-3.578126 8-8 8-48.519532 0-88 39.480469-88 88 0 4.421875-3.578126 8-8 8zm0 0"/><path fill="currentColor" d="m352.613281 144.0625c-4.425781 0-8.042969-3.574219-8.042969-8 0-4.421875 3.539063-8 7.953126-8h.089843c4.414063 0 8 3.578125 8 8 0 4.425781-3.59375 8-8 8zm0 0"/><path fill="currentColor" d="m352.613281 447.777344c-4.425781 0-8.042969-3.578125-8.042969-8 0-4.425782 3.539063-8 7.953126-8h.089843c4.414063 0 8 3.574218 8 8 0 4.421875-3.59375 8-8 8zm0 0"/><path fill="currentColor" d="m384.476562 111.96875h-248.175781c-4.425781 0-8-3.578125-8-8 0-4.425781 3.574219-8 8-8h248.167969c4.421875 0 8 3.574219 8 8 0 4.421875-3.570312 8-7.992188 8zm0 0"/><path fill="currentColor" d="m384.476562 479.984375c-4.425781 0-8-3.578125-8-8v-368.015625c0-4.425781 3.574219-8 8-8 4.421876 0 8 3.574219 8 8v368.015625c0 4.421875-3.578124 8-8 8zm0 0"/><path fill="currentColor" d="m384.476562 479.984375h-256.542968c-4.425782 0-8-3.578125-8-8 0-4.425781 3.574218-8 8-8h256.542968c4.421876 0 8 3.574219 8 8 0 4.421875-3.578124 8-8 8zm0 0"/><path fill="currentColor" d="m200.507812 111.96875c-4.421874 0-8-3.578125-8-8v-31.488281c0-4.425781 3.578126-8 8-8 4.425782 0 8 3.574219 8 8v31.496093c0 4.414063-3.574218 7.992188-8 7.992188zm0 0"/><path fill="currentColor" d="m168.476562 111.96875c-4.425781 0-8-3.578125-8-8v-31.488281c0-4.425781 3.574219-8 8-8 4.421876 0 8 3.574219 8 8v31.496093c0 4.414063-3.578124 7.992188-8 7.992188zm0 0"/><path fill="currentColor" d="m232.492188 111.96875c-4.425782 0-8-3.578125-8-8v-31.488281c0-4.425781 3.574218-8 8-8 4.421874 0 8 3.574219 8 8v31.496093c0 4.414063-3.578126 7.992188-8 7.992188zm0 0"/><path fill="currentColor" d="m264.492188 111.96875c-4.425782 0-8-3.578125-8-8v-31.488281c0-4.425781 3.574218-8 8-8 4.421874 0 8 3.574219 8 8v31.496093c0 4.414063-3.578126 7.992188-8 7.992188zm0 0"/><path fill="currentColor" d="m296.476562 111.96875c-4.425781 0-8-3.578125-8-8v-31.488281c0-4.425781 3.574219-8 8-8 4.421876 0 8 3.574219 8 8v31.496093c0 4.414063-3.578124 7.992188-8 7.992188zm0 0"/><path fill="currentColor" d="m328.476562 111.96875c-4.425781 0-8-3.578125-8-8v-31.488281c0-4.425781 3.574219-8 8-8 4.421876 0 8 3.574219 8 8v31.496093c0 4.414063-3.578124 7.992188-8 7.992188zm0 0"/><path fill="currentColor" d="m360.460938 111.96875c-4.425782 0-8-3.578125-8-8v-31.488281c0-4.425781 3.574218-8 8-8 4.421874 0 8 3.574219 8 8v31.496093c0 4.414063-3.578126 7.992188-8 7.992188zm0 0"/><path fill="currentColor" d="m416.226562 135.96875h-31.503906c-4.421875 0-8-3.578125-8-8 0-4.425781 3.578125-8 8-8h31.503906c4.425782 0 8 3.574219 8 8 0 4.421875-3.582031 8-8 8zm0 0"/><path fill="currentColor" d="m416.226562 167.960938h-31.503906c-4.421875 0-8-3.578126-8-8 0-4.425782 3.578125-8 8-8h31.503906c4.425782 0 8 3.574218 8 8 0 4.421874-3.582031 8-8 8zm0 0"/><path fill="currentColor" d="m416.226562 199.953125h-31.503906c-4.421875 0-8-3.578125-8-8 0-4.425781 3.578125-8 8-8h31.503906c4.425782 0 8 3.574219 8 8 0 4.421875-3.582031 8-8 8zm0 0"/><path fill="currentColor" d="m416.226562 231.945312h-31.503906c-4.421875 0-8-3.578124-8-8 0-4.425781 3.578125-8 8-8h31.503906c4.425782 0 8 3.574219 8 8 0 4.421876-3.582031 8-8 8zm0 0"/><path fill="currentColor" d="m416.226562 263.9375h-31.503906c-4.421875 0-8-3.578125-8-8 0-4.425781 3.578125-8 8-8h31.503906c4.425782 0 8 3.574219 8 8 0 4.421875-3.582031 8-8 8zm0 0"/><path fill="currentColor" d="m416.226562 295.929688h-31.503906c-4.421875 0-8-3.578126-8-8 0-4.425782 3.578125-8 8-8h31.503906c4.425782 0 8 3.574218 8 8 0 4.421874-3.582031 8-8 8zm0 0"/><path fill="currentColor" d="m416.226562 327.921875h-31.503906c-4.421875 0-8-3.578125-8-8 0-4.425781 3.578125-8 8-8h31.503906c4.425782 0 8 3.574219 8 8 0 4.421875-3.582031 8-8 8zm0 0"/><path fill="currentColor" d="m416.226562 359.910156h-31.503906c-4.421875 0-8-3.574218-8-8 0-4.421875 3.578125-8 8-8h31.503906c4.425782 0 8 3.578125 8 8 0 4.425782-3.582031 8-8 8zm0 0"/><path fill="currentColor" d="m416.226562 391.902344h-31.503906c-4.421875 0-8-3.574219-8-8 0-4.421875 3.578125-8 8-8h31.503906c4.425782 0 8 3.578125 8 8 0 4.425781-3.582031 8-8 8zm0 0"/><path fill="currentColor" d="m416.226562 423.894531h-31.503906c-4.421875 0-8-3.574219-8-8 0-4.421875 3.578125-8 8-8h31.503906c4.425782 0 8 3.578125 8 8 0 4.425781-3.582031 8-8 8zm0 0"/><path fill="currentColor" d="m416.226562 455.929688h-31.503906c-4.421875 0-8-3.578126-8-8 0-4.425782 3.578125-8 8-8h31.503906c4.425782 0 8 3.574218 8 8 0 4.421874-3.582031 8-8 8zm0 0"/><path fill="currentColor" d="m200.507812 511.726562c-4.421874 0-8-3.574218-8-8v-31.496093c0-4.421875 3.578126-8 8-8 4.425782 0 8 3.578125 8 8v31.496093c0 4.425782-3.574218 8-8 8zm0 0"/><path fill="currentColor" d="m168.523438 511.726562c-4.421876 0-8-3.574218-8-8v-31.496093c0-4.421875 3.578124-8 8-8 4.425781 0 8 3.578125 8 8v31.496093c0 4.425782-3.574219 8-8 8zm0 0"/><path fill="currentColor" d="m136.492188 511.726562c-4.425782 0-8-3.574218-8-8v-31.496093c0-4.421875 3.574218-8 8-8 4.421874 0 8 3.578125 8 8v31.496093c0 4.425782-3.578126 8-8 8zm0 0"/><path fill="currentColor" d="m232.492188 511.726562c-4.425782 0-8-3.574218-8-8v-31.496093c0-4.421875 3.574218-8 8-8 4.421874 0 8 3.578125 8 8v31.496093c0 4.425782-3.578126 8-8 8zm0 0"/><path fill="currentColor" d="m264.492188 511.726562c-4.425782 0-8-3.574218-8-8v-31.496093c0-4.421875 3.574218-8 8-8 4.421874 0 8 3.578125 8 8v31.496093c0 4.425782-3.578126 8-8 8zm0 0"/><path fill="currentColor" d="m296.476562 511.726562c-4.425781 0-8-3.574218-8-8v-31.496093c0-4.421875 3.574219-8 8-8 4.421876 0 8 3.578125 8 8v31.496093c0 4.425782-3.578124 8-8 8zm0 0"/><path fill="currentColor" d="m328.476562 511.726562c-4.425781 0-8-3.574218-8-8v-31.496093c0-4.421875 3.574219-8 8-8 4.421876 0 8 3.578125 8 8v31.496093c0 4.425782-3.578124 8-8 8zm0 0"/><path fill="currentColor" d="m360.460938 511.726562c-4.425782 0-8-3.574218-8-8v-31.496093c0-4.421875 3.574218-8 8-8 4.421874 0 8 3.578125 8 8v31.496093c0 4.425782-3.578126 8-8 8zm0 0"/><path fill="currentColor" d="m304.476562 311.96875c-2.046874 0-4.097656-.785156-5.65625-2.34375l-16-16c-3.128906-3.128906-3.128906-8.183594 0-11.3125l16-16c3.128907-3.128906 8.183594-3.128906 11.3125 0l16 16c3.128907 3.128906 3.128907 8.183594 0 11.3125l-16 16c-1.5625 1.558594-3.609374 2.34375-5.65625 2.34375zm-4.6875-24 4.6875 4.6875 4.6875-4.6875-4.6875-4.6875zm0 0"/></svg>