<svg aria-hidden="true" focusable="false" role="img" enable-background="new 0 0 64 64" viewBox="0 0 64 64" xmlns="http://www.w3.org/2000/svg"><g><path fill="currentColor" d="m10 49c-2.757 0-5 2.243-5 5s2.243 5 5 5 5-2.243 5-5-2.243-5-5-5zm0 8c-1.654 0-3-1.346-3-3s1.346-3 3-3 3 1.346 3 3-1.346 3-3 3z"/><path fill="currentColor" d="m55 20h2.184c.414 1.161 1.514 2 2.816 2 1.654 0 3-1.346 3-3s-1.346-3-3-3c-1.302 0-2.402.839-2.816 2h-2.184v-8h2.184c.414 1.161 1.514 2 2.816 2 1.654 0 3-1.346 3-3s-1.346-3-3-3c-1.302 0-2.402.839-2.816 2h-2.184v-2c0-.552-.448-1-1-1h-36.522c-1.617-2.41-4.365-4-7.478-4-4.962 0-9 4.038-9 9v44c0 4.962 4.038 9 9 9h44c.552 0 1-.448 1-1v-2h2.184c.414 1.161 1.514 2 2.816 2 1.654 0 3-1.346 3-3s-1.346-3-3-3c-1.302 0-2.402.839-2.816 2h-2.184v-8h2.184c.414 1.161 1.514 2 2.816 2 1.654 0 3-1.346 3-3s-1.346-3-3-3c-1.302 0-2.402.839-2.816 2h-2.184v-8h2.184c.414 1.161 1.514 2 2.816 2 1.654 0 3-1.346 3-3s-1.346-3-3-3c-1.302 0-2.402.839-2.816 2h-2.184v-8h2.184c.414 1.161 1.514 2 2.816 2 1.654 0 3-1.346 3-3s-1.346-3-3-3c-1.302 0-2.402.839-2.816 2h-2.184zm5-2c.551 0 1 .449 1 1s-.449 1-1 1-1-.449-1-1 .449-1 1-1zm0-10c.551 0 1 .449 1 1s-.449 1-1 1-1-.449-1-1 .449-1 1-1zm-15.586 47-2.293-2.293c-.723-.723-1.121-1.685-1.121-2.707s.398-1.984 1.121-2.707l1.172-1.172c1.101-1.1 1.707-2.564 1.707-4.121s-.606-3.021-1.707-4.121l-1.172-1.172c-.723-.723-1.121-1.685-1.121-2.707s.398-1.984 1.121-2.707l1.172-1.172c1.101-1.1 1.707-2.564 1.707-4.121s-.606-3.021-1.707-4.121l-1.172-1.172c-.723-.723-1.121-1.685-1.121-2.707s.398-1.984 1.121-2.707l2.293-2.293h2.586v42zm-3.707-41.121c-1.101 1.1-1.707 2.564-1.707 4.121s.606 3.021 1.707 4.121l1.172 1.172c.723.723 1.121 1.685 1.121 2.707s-.398 1.984-1.121 2.707l-1.172 1.172c-1.101 1.1-1.707 2.564-1.707 4.121s.606 3.021 1.707 4.121l1.172 1.172c.723.723 1.121 1.685 1.121 2.707s-.398 1.984-1.121 2.707l-1.172 1.172c-1.101 1.1-1.707 2.564-1.707 4.121s.606 3.021 1.707 4.121l.879.879h-4.172l-2.293-2.293c-.723-.723-1.121-1.685-1.121-2.707s.398-1.984 1.121-2.707l1.172-1.172c1.101-1.1 1.707-2.564 1.707-4.121s-.606-3.021-1.707-4.121l-1.172-1.172c-.723-.723-1.121-1.685-1.121-2.707s.398-1.984 1.121-2.707l1.172-1.172c1.101-1.1 1.707-2.564 1.707-4.121s-.606-3.021-1.707-4.121l-1.172-1.172c-.723-.723-1.121-1.685-1.121-2.707s.398-1.984 1.121-2.707l2.293-2.293h4.172zm-7 0c-1.101 1.1-1.707 2.564-1.707 4.121s.606 3.021 1.707 4.121l1.172 1.172c.723.723 1.121 1.685 1.121 2.707s-.398 1.984-1.121 2.707l-1.172 1.172c-1.101 1.1-1.707 2.564-1.707 4.121s.606 3.021 1.707 4.121l1.172 1.172c.723.723 1.121 1.685 1.121 2.707s-.398 1.984-1.121 2.707l-1.172 1.172c-1.101 1.1-1.707 2.564-1.707 4.121s.606 3.021 1.707 4.121l.879.879h-4.172l-2.293-2.293c-.723-.723-1.121-1.685-1.121-2.707s.398-1.984 1.121-2.707l1.172-1.172c1.101-1.1 1.707-2.564 1.707-4.121s-.606-3.021-1.707-4.121l-1.172-1.172c-.723-.723-1.121-1.685-1.121-2.707s.398-1.984 1.121-2.707l1.172-1.172c1.101-1.1 1.707-2.564 1.707-4.121s-.606-3.021-1.707-4.121l-1.172-1.172c-.723-.723-1.121-1.685-1.121-2.707s.398-1.984 1.121-2.707l2.293-2.293h4.172zm-7 0c-1.101 1.1-1.707 2.564-1.707 4.121s.606 3.021 1.707 4.121l1.172 1.172c.723.723 1.121 1.685 1.121 2.707s-.398 1.984-1.121 2.707l-1.172 1.172c-1.101 1.1-1.707 2.564-1.707 4.121s.606 3.021 1.707 4.121l1.172 1.172c.723.723 1.121 1.685 1.121 2.707s-.398 1.984-1.121 2.707l-1.172 1.172c-1.101 1.1-1.707 2.564-1.707 4.121s.606 3.021 1.707 4.121l.879.879h-4.172l-2.293-2.293c-.723-.723-1.121-1.685-1.121-2.707s.398-1.984 1.121-2.707l1.172-1.172c1.101-1.1 1.707-2.564 1.707-4.121s-.606-3.021-1.707-4.121l-1.172-1.172c-.723-.723-1.121-1.685-1.121-2.707s.398-1.984 1.121-2.707l1.172-1.172c1.101-1.1 1.707-2.564 1.707-4.121s-.606-3.021-1.707-4.121l-1.172-1.172c-.723-.723-1.121-1.685-1.121-2.707s.398-1.984 1.121-2.707l2.293-2.293h4.172zm-7.707 7.385c.206.304.442.592.707.857l1.172 1.172c.723.723 1.121 1.685 1.121 2.707s-.398 1.984-1.121 2.707l-1.172 1.172c-.266.266-.501.553-.707.857zm1.879 18.029c.723.723 1.121 1.685 1.121 2.707s-.398 1.984-1.121 2.707l-1.172 1.172c-.266.266-.501.553-.707.857v-9.472c.206.304.442.592.707.857zm-1.879 14.707v-.736c.206.304.442.592.707.857l.879.879h-1.645c.037-.329.059-.662.059-1zm.707-40.121c-.266.266-.501.553-.707.857v-1.736h1.586zm-16.707-3.879c0-3.86 3.14-7 7-7s7 3.14 7 7v38.356c-1.651-2.044-4.174-3.356-7-3.356s-5.349 1.312-7 3.356zm0 44c0-3.86 3.14-7 7-7s7 3.14 7 7-3.14 7-7 7-7-3.14-7-7zm50 7h-37.356c1.282-1.036 2.269-2.417 2.831-4h29.525c.552 0 1-.448 1-1v-44c0-.552-.448-1-1-1h-29v-1c0-1.053-.191-2.06-.525-3h34.525zm7-3c.551 0 1 .449 1 1s-.449 1-1 1-1-.449-1-1 .449-1 1-1zm0-10c.551 0 1 .449 1 1s-.449 1-1 1-1-.449-1-1 .449-1 1-1zm0-10c.551 0 1 .449 1 1s-.449 1-1 1-1-.449-1-1 .449-1 1-1zm0-10c.551 0 1 .449 1 1s-.449 1-1 1-1-.449-1-1 .449-1 1-1z"/></g></svg>