<svg viewBox="-17 -25 542.66924 542" xmlns="http://www.w3.org/2000/svg"><path fill="currentColor" d="m493.292969 401.695312-1.039063-1.039062c-1.328125-1.34375-1.960937-3.226562-1.722656-5.097656 6.328125-53.863282 6.328125-108.289063 0-162.152344-.238281-1.878906.398438-3.757812 1.726562-5.101562 19.046876-18.589844 21.613282-48.3125 6.03125-69.890626-9.15625-12.277343-23.203124-19.964843-38.476562-21.066406-15.277344-1.109375-30.28125 4.480469-41.109375 15.308594l-2.078125 2.074219c-1.246094 1.246093-2.972656 1.886719-4.734375 1.765625-104.902344-7.058594-210.164063-7.058594-315.074219 0-1.746094.117187-3.460937-.519532-4.699218-1.765625l-1.039063-.992188c-19.675781-20.171875-51.601563-21.667969-73.078125-3.433593-11.03125 9.589843-17.550781 23.359374-17.9765625 37.96875-.4453125 14.574218 5.1289065 28.683593 15.4218745 39.007812l1.039063 1.039062c1.332031 1.347657 1.964844 3.222657 1.726563 5.101563-6.328126 53.863281-6.328126 108.285156 0 162.152344.238281 1.875-.398438 3.753906-1.730469 5.097656-20.160157 19.675781-21.65625 51.601563-3.417969 73.078125 9.589844 11.03125 23.359375 17.546875 37.964844 17.972656.566406 0 1.125.027344 1.6875.027344 13.996094-.015625 27.414062-5.566406 37.324218-15.449219l2.0625-2.0625c1.242188-1.25 2.976563-1.890625 4.734376-1.761719 104.90625 7.058594 210.171874 7.058594 315.074218 0 1.761719-.117187 3.480469.523438 4.734375 1.761719l1.027344 1.027344c19.679687 20.171875 51.601563 21.667969 73.078125 3.429687 11.035156-9.589843 17.550781-23.359374 17.976562-37.972656.453126-14.578125-5.128906-28.699218-15.433593-39.027344zm-15.726563 61.976563c-13.5625 11.300781-33.554687 10.195313-45.777344-2.542969l-1.03125-1.03125c-5.324218-5.316406-12.691406-8.078125-20.199218-7.566406-104.011719 7-208.375 7-312.382813 0-7.507812-.511719-14.875 2.25-20.199219 7.566406l-2.0625 2.0625c-6.414062 6.417969-15.203124 9.886719-24.277343 9.582032-9.070313-.304688-17.605469-4.355469-23.578125-11.183594-11.304688-13.566406-10.195313-33.558594 2.539062-45.78125 5.667969-5.65625 8.410156-13.601563 7.441406-21.546875-6.148437-52.316407-6.148437-105.171875 0-157.488281.976563-7.941407-1.769531-15.894532-7.441406-21.546876l-1.039062-1.035156c-6.414063-6.417968-9.878906-15.207031-9.574219-24.277344.304687-9.066406 4.355469-17.609374 11.183594-23.582031 5.835937-5.085937 13.332031-7.867187 21.074219-7.816406 9.28125.046875 18.167968 3.769531 24.707031 10.367187l1.027343 1.023438c5.332032 5.320312 12.691407 8.074219 20.199219 7.570312 104.015625-7 208.378907-7 312.390625 0 7.507813.519532 14.875-2.242187 20.191406-7.570312l2.0625-2.058594c6.742188-6.742187 16.085938-10.210937 25.597657-9.511718 9.507812.699218 18.238281 5.503906 23.921875 13.160156 9.609375 13.613281 7.828125 32.207031-4.203125 43.738281-5.667969 5.648437-8.414063 13.601563-7.4375 21.542969 6.140625 52.320312 6.140625 105.171875 0 157.492187-.972657 7.941407 1.773437 15.886719 7.4375 21.542969l1.039062 1.039062c6.417969 6.414063 9.882813 15.207032 9.582031 24.273438-.308593 9.070312-4.359374 17.609375-11.191406 23.582031zm0 0"/><path fill="currentColor" d="m82.523438 221.632812c-5.347657 1.351563-8.585938 6.78125-7.238282 12.125 13.527344 52.972657 13.527344 108.492188 0 161.464844-.925781 3.476563.09375 7.179688 2.664063 9.695313 2.570312 2.519531 6.292969 3.460937 9.75 2.460937 3.457031-.992187 6.113281-3.773437 6.949219-7.273437 14.347656-56.179688 14.347656-115.058594 0-171.238281-1.351563-5.347657-6.78125-8.585938-12.125-7.234376zm0 0"/><path fill="currentColor" d="m231.710938 68.417969c1.058593 3.914062 4.382812 6.800781 8.40625 7.300781l64.59375 8.042969c.414062.050781.828124.078125 1.246093.078125 5.277344 0 9.644531-4.105469 9.972657-9.378906.320312-5.265626-3.511719-9.875-8.746094-10.519532l-40.332032-5.023437 43.636719-33.28125c3.210938-2.453125 4.628907-6.597657 3.597657-10.503907-1.039063-3.90625-4.328126-6.800781-8.332032-7.335937l-59.230468-7.921875c-5.46875-.734375-10.488282 3.109375-11.21875 8.574219-.734376 5.464843 3.105468 10.488281 8.570312 11.21875l35.300781 4.722656-43.882812 33.492187c-3.222657 2.457032-4.636719 6.621094-3.582031 10.535157zm0 0"/><path fill="currentColor" d="m338.554688 110.800781c1.058593 3.917969 4.378906 6.804688 8.40625 7.300781l56.0625 6.992188c.414062.046875.832031.074219 1.246093.074219 5.28125.003906 9.648438-4.105469 9.972657-9.371094.324218-5.265625-3.507813-9.878906-8.746094-10.523437l-31.808594-3.957032 35.308594-26.960937c3.210937-2.449219 4.636718-6.597657 3.597656-10.5-1.035156-3.90625-4.324219-6.804688-8.332031-7.339844l-51.421875-6.878906c-5.464844-.730469-10.488282 3.109375-11.21875 8.574219-.730469 5.46875 3.105468 10.492187 8.578125 11.21875l27.480469 3.683593-35.542969 27.15625c-3.222657 2.457031-4.640625 6.621094-3.582031 10.53125zm0 0"/></svg>